<svg width="135.000000" height="44.000000" viewBox="0 0 135 44" fill="none" xmlns="http://www.w3.org/2000/svg" xmlns:xlink="http://www.w3.org/1999/xlink">
	<desc>
			Created with Pixso.
	</desc>
	<defs>
		<clipPath id="clip2_13">
			<rect id="IMAGE" rx="0.000000" width="134.000000" height="43.000000" transform="translate(0.500000 0.500000)" fill="white" fill-opacity="0"/>
		</clipPath>
	</defs>
	<g clip-path="url(#clip2_13)">
		<path id="Vector" d="M9.98 21.98C4.47 21.98 0 26.46 0 31.99L0 42L9.98 42C15.49 42 19.97 37.51 19.97 31.99C19.97 26.46 15.49 21.98 9.98 21.98Z" fill="#57D9A6" fill-opacity="1.000000" fill-rule="nonzero"/>
		<path id="Vector" d="M29.98 22.01C35.49 22.01 39.97 17.53 39.97 12L39.97 2L29.98 2C24.47 2 19.99 6.48 19.99 12C19.99 17.53 24.47 22.01 29.98 22.01Z" fill="#57D9A6" fill-opacity="1.000000" fill-rule="nonzero"/>
		<path id="Vector" d="M20.02 12C20.02 6.49 15.54 2.02 10.01 2.02L0 2.02L0 12C0 17.51 4.48 21.98 10.01 21.98C15.54 21.98 20.02 17.51 20.02 12Z" fill="#57D9A6" fill-opacity="1.000000" fill-rule="nonzero"/>
		<path id="Vector" d="M19.97 31.96C19.97 37.47 24.45 41.94 29.98 41.94L40 41.94L40 31.96C40 26.45 35.51 21.98 29.98 21.98C24.45 21.98 19.97 26.45 19.97 31.96Z" fill="#57D9A6" fill-opacity="1.000000" fill-rule="nonzero"/>
		<path id="Vector" d="M65.38 34.4C63.93 34.4 62.48 34.14 61.03 33.62C59.6 33.08 58.32 32.27 57.19 31.21L60.04 27.77C60.83 28.45 61.71 29.01 62.66 29.44C63.63 29.87 64.59 30.09 65.51 30.09C66.56 30.09 67.33 29.89 67.83 29.51C68.35 29.12 68.61 28.6 68.61 27.94C68.61 27.6 68.53 27.31 68.37 27.06C68.24 26.81 68.02 26.59 67.73 26.41C67.45 26.21 67.11 26.03 66.71 25.87C66.32 25.69 65.89 25.5 65.41 25.29L62.52 24.07C61.96 23.84 61.4 23.55 60.86 23.18C60.34 22.82 59.86 22.4 59.43 21.93C59.02 21.43 58.69 20.86 58.44 20.23C58.19 19.57 58.07 18.83 58.07 18.02C58.07 17.11 58.26 16.26 58.65 15.47C59.03 14.65 59.58 13.95 60.28 13.36C60.98 12.75 61.81 12.27 62.76 11.93C63.74 11.59 64.8 11.42 65.96 11.42C67.25 11.42 68.52 11.67 69.76 12.17C71.03 12.67 72.15 13.39 73.1 14.34L70.55 17.51C69.82 16.94 69.1 16.51 68.37 16.21C67.65 15.9 66.84 15.74 65.96 15.74C65.1 15.74 64.4 15.92 63.88 16.28C63.38 16.62 63.14 17.11 63.14 17.74C63.14 18.08 63.21 18.38 63.37 18.63C63.55 18.85 63.79 19.07 64.09 19.27C64.4 19.45 64.77 19.64 65.18 19.82C65.58 19.98 66.03 20.16 66.5 20.36L69.36 21.52C70.72 22.06 71.78 22.81 72.55 23.76C73.35 24.71 73.74 25.97 73.74 27.54C73.74 28.46 73.55 29.35 73.17 30.19C72.8 31 72.26 31.73 71.53 32.36C70.83 32.98 69.96 33.47 68.92 33.86C67.87 34.22 66.69 34.4 65.38 34.4ZM76.42 34L76.42 10.16L81.28 10.16L81.28 23.83L81.42 23.83L86.75 17.13L92.19 17.13L86.28 24.07L92.64 34L87.23 34L83.42 27.43L81.28 29.85L81.28 34L76.42 34ZM94.36 34L94.36 17.13L99.36 17.13L99.36 34L94.36 34ZM96.85 14.65C96.01 14.65 95.32 14.41 94.77 13.94C94.23 13.44 93.96 12.8 93.96 12.03C93.96 11.26 94.23 10.64 94.77 10.16C95.32 9.68 96.01 9.45 96.85 9.45C97.71 9.45 98.4 9.68 98.92 10.16C99.46 10.64 99.74 11.26 99.74 12.03C99.74 12.8 99.46 13.44 98.92 13.94C98.4 14.41 97.71 14.65 96.85 14.65ZM107.67 34.4C106.81 34.4 106.08 34.27 105.5 34C104.91 33.72 104.43 33.35 104.07 32.87C103.73 32.37 103.48 31.79 103.32 31.11C103.16 30.4 103.08 29.62 103.08 28.76L103.08 10.16L108.08 10.16L108.08 28.96C108.08 29.48 108.17 29.85 108.35 30.05C108.56 30.26 108.76 30.36 108.96 30.36C109.08 30.36 109.17 30.36 109.24 30.36C109.33 30.36 109.44 30.33 109.58 30.29L110.19 34C109.92 34.11 109.56 34.2 109.13 34.27C108.73 34.36 108.24 34.4 107.67 34.4ZM116.72 34.4C115.86 34.4 115.13 34.27 114.54 34C113.95 33.72 113.48 33.35 113.12 32.87C112.78 32.37 112.53 31.79 112.37 31.11C112.21 30.4 112.13 29.62 112.13 28.76L112.13 10.16L117.13 10.16L117.13 28.96C117.13 29.48 117.22 29.85 117.4 30.05C117.6 30.26 117.81 30.36 118.01 30.36C118.13 30.36 118.22 30.36 118.28 30.36C118.37 30.36 118.49 30.33 118.62 30.29L119.24 34C118.96 34.11 118.61 34.2 118.18 34.27C117.77 34.36 117.29 34.4 116.72 34.4ZM120.26 34L120.26 31.31L127.33 21.04L121.04 21.04L121.04 17.13L133.55 17.13L133.55 19.78L126.48 30.09L133.79 30.09L133.79 34L120.26 34Z" fill="#FFFFFF" fill-opacity="1.000000" fill-rule="nonzero"/>
	</g>
</svg>
